<mxfile host="app.diagrams.net" modified="2023-11-14T12:16:08.123Z" agent="Mozilla/5.0 (Windows NT 10.0; Win64; x64) AppleWebKit/537.36 (KHTML, like Gecko) Chrome/116.0.5845.837 YaBrowser/23.9.4.837 Yowser/2.5 Safari/537.36" etag="RZep5hYtihe-OXTHltZf" version="22.1.0" type="device">
  <diagram name="Страница — 1" id="UAlW23GWKHoJfeEqs9-d">
    <mxGraphModel dx="1242" dy="567" grid="0" gridSize="10" guides="1" tooltips="1" connect="1" arrows="1" fold="1" page="1" pageScale="1" pageWidth="827" pageHeight="1169" math="0" shadow="0">
      <root>
        <mxCell id="0" />
        <mxCell id="1" parent="0" />
        <mxCell id="duleNhPsg_8qqcPGI_0x-1" value="Генеральный директор (1)" style="rounded=0;whiteSpace=wrap;html=1;" parent="1" vertex="1">
          <mxGeometry x="106" y="636" width="120" height="60" as="geometry" />
        </mxCell>
        <mxCell id="duleNhPsg_8qqcPGI_0x-2" value="&lt;br&gt;&lt;br&gt;&lt;br&gt;&lt;br&gt;&lt;br&gt;&lt;br&gt;&lt;br&gt;&lt;br&gt;&lt;br&gt;&lt;br&gt;&lt;br&gt;&lt;br&gt;&lt;br&gt;&lt;br&gt;&lt;br&gt;&lt;br&gt;&lt;br&gt;&lt;br&gt;&lt;br&gt;&lt;br&gt;&lt;br&gt;&lt;br&gt;&lt;br&gt;&lt;br&gt;&lt;br&gt;&lt;br&gt;&lt;br&gt;&lt;br&gt;&lt;br&gt;&lt;br&gt;&lt;br&gt;&lt;br&gt;&lt;br&gt;&lt;br&gt;&lt;br&gt;&lt;br&gt;&lt;br&gt;&lt;br&gt;&lt;br&gt;&lt;br&gt;&lt;br&gt;&lt;b&gt;&lt;font color=&quot;#cc6600&quot;&gt;ГОЛОВНОЙ ОФИС (23) - 1 площадка&lt;/font&gt;&lt;/b&gt;" style="rounded=1;whiteSpace=wrap;html=1;fillColor=#FFCC99;" parent="1" vertex="1">
          <mxGeometry x="316" y="176" width="349" height="610" as="geometry" />
        </mxCell>
        <mxCell id="duleNhPsg_8qqcPGI_0x-3" value="&lt;br&gt;&lt;br&gt;&lt;br&gt;&lt;br&gt;Бухгалтерия (3)" style="rounded=1;whiteSpace=wrap;html=1;fillColor=#FFCC99;" parent="1" vertex="1">
          <mxGeometry x="326" y="206" width="329" height="70" as="geometry" />
        </mxCell>
        <mxCell id="duleNhPsg_8qqcPGI_0x-6" style="edgeStyle=orthogonalEdgeStyle;rounded=0;orthogonalLoop=1;jettySize=auto;html=1;exitX=1;exitY=0.5;exitDx=0;exitDy=0;entryX=0;entryY=0.5;entryDx=0;entryDy=0;" parent="1" source="duleNhPsg_8qqcPGI_0x-4" target="duleNhPsg_8qqcPGI_0x-5" edge="1">
          <mxGeometry relative="1" as="geometry" />
        </mxCell>
        <mxCell id="duleNhPsg_8qqcPGI_0x-4" value="Главный бухгалтер (1)" style="rounded=0;whiteSpace=wrap;html=1;" parent="1" vertex="1">
          <mxGeometry x="346" y="226" width="130" height="30" as="geometry" />
        </mxCell>
        <mxCell id="duleNhPsg_8qqcPGI_0x-5" value="Сотрудники бухгалтерии (2)" style="rounded=0;whiteSpace=wrap;html=1;" parent="1" vertex="1">
          <mxGeometry x="516" y="226" width="130" height="30" as="geometry" />
        </mxCell>
        <mxCell id="duleNhPsg_8qqcPGI_0x-7" style="edgeStyle=orthogonalEdgeStyle;rounded=0;orthogonalLoop=1;jettySize=auto;html=1;exitX=1;exitY=0.5;exitDx=0;exitDy=0;entryX=0;entryY=0.5;entryDx=0;entryDy=0;" parent="1" source="duleNhPsg_8qqcPGI_0x-1" target="duleNhPsg_8qqcPGI_0x-4" edge="1">
          <mxGeometry relative="1" as="geometry" />
        </mxCell>
        <mxCell id="duleNhPsg_8qqcPGI_0x-8" value="&lt;br&gt;&lt;br&gt;&lt;br&gt;&lt;br&gt;&lt;br&gt;&lt;br&gt;&lt;br&gt;&lt;br&gt;&lt;br&gt;ИТ-отдел (7)" style="rounded=1;whiteSpace=wrap;html=1;fillColor=#FFCC99;" parent="1" vertex="1">
          <mxGeometry x="326" y="286" width="329" height="150" as="geometry" />
        </mxCell>
        <mxCell id="duleNhPsg_8qqcPGI_0x-9" style="edgeStyle=orthogonalEdgeStyle;rounded=0;orthogonalLoop=1;jettySize=auto;html=1;exitX=1;exitY=0.5;exitDx=0;exitDy=0;entryX=0;entryY=0.5;entryDx=0;entryDy=0;" parent="1" source="duleNhPsg_8qqcPGI_0x-10" target="duleNhPsg_8qqcPGI_0x-11" edge="1">
          <mxGeometry relative="1" as="geometry" />
        </mxCell>
        <mxCell id="duleNhPsg_8qqcPGI_0x-14" style="edgeStyle=orthogonalEdgeStyle;rounded=0;orthogonalLoop=1;jettySize=auto;html=1;exitX=1;exitY=0.5;exitDx=0;exitDy=0;entryX=0;entryY=0.5;entryDx=0;entryDy=0;" parent="1" source="duleNhPsg_8qqcPGI_0x-10" target="duleNhPsg_8qqcPGI_0x-13" edge="1">
          <mxGeometry relative="1" as="geometry" />
        </mxCell>
        <mxCell id="duleNhPsg_8qqcPGI_0x-10" value="Руководитель по ИТ (1)" style="rounded=0;whiteSpace=wrap;html=1;" parent="1" vertex="1">
          <mxGeometry x="346" y="346" width="110" height="30" as="geometry" />
        </mxCell>
        <mxCell id="duleNhPsg_8qqcPGI_0x-11" value="Служба ИТ (3)" style="rounded=0;whiteSpace=wrap;html=1;" parent="1" vertex="1">
          <mxGeometry x="516" y="306" width="130" height="30" as="geometry" />
        </mxCell>
        <mxCell id="duleNhPsg_8qqcPGI_0x-13" value="Разработчики мобильного приложения (3)" style="rounded=0;whiteSpace=wrap;html=1;" parent="1" vertex="1">
          <mxGeometry x="516" y="366" width="130" height="50" as="geometry" />
        </mxCell>
        <mxCell id="duleNhPsg_8qqcPGI_0x-15" value="&lt;br&gt;&lt;br&gt;&lt;br&gt;&lt;br&gt;Отдел PR и рекламы (3)" style="rounded=1;whiteSpace=wrap;html=1;fillColor=#FFCC99;" parent="1" vertex="1">
          <mxGeometry x="326" y="446" width="329" height="70" as="geometry" />
        </mxCell>
        <mxCell id="duleNhPsg_8qqcPGI_0x-16" style="edgeStyle=orthogonalEdgeStyle;rounded=0;orthogonalLoop=1;jettySize=auto;html=1;exitX=1;exitY=0.5;exitDx=0;exitDy=0;entryX=0;entryY=0.5;entryDx=0;entryDy=0;" parent="1" source="duleNhPsg_8qqcPGI_0x-17" target="duleNhPsg_8qqcPGI_0x-18" edge="1">
          <mxGeometry relative="1" as="geometry" />
        </mxCell>
        <mxCell id="duleNhPsg_8qqcPGI_0x-17" value="Руководитель отдела PR и рекламы (1)" style="rounded=0;whiteSpace=wrap;html=1;" parent="1" vertex="1">
          <mxGeometry x="346" y="466" width="130" height="30" as="geometry" />
        </mxCell>
        <mxCell id="duleNhPsg_8qqcPGI_0x-18" value="Менеджер по рекламе,PR и SMM (2)" style="rounded=0;whiteSpace=wrap;html=1;" parent="1" vertex="1">
          <mxGeometry x="516" y="466" width="130" height="30" as="geometry" />
        </mxCell>
        <mxCell id="duleNhPsg_8qqcPGI_0x-19" value="&lt;br&gt;&lt;br&gt;&lt;br&gt;&lt;br&gt;Отдел кадров (3)" style="rounded=1;whiteSpace=wrap;html=1;fillColor=#FFCC99;" parent="1" vertex="1">
          <mxGeometry x="326" y="526" width="329" height="70" as="geometry" />
        </mxCell>
        <mxCell id="duleNhPsg_8qqcPGI_0x-20" style="edgeStyle=orthogonalEdgeStyle;rounded=0;orthogonalLoop=1;jettySize=auto;html=1;exitX=1;exitY=0.5;exitDx=0;exitDy=0;entryX=0;entryY=0.5;entryDx=0;entryDy=0;" parent="1" source="duleNhPsg_8qqcPGI_0x-21" target="duleNhPsg_8qqcPGI_0x-22" edge="1">
          <mxGeometry relative="1" as="geometry" />
        </mxCell>
        <mxCell id="duleNhPsg_8qqcPGI_0x-21" value="Руководитель отдела кадров (1)" style="rounded=0;whiteSpace=wrap;html=1;" parent="1" vertex="1">
          <mxGeometry x="346" y="546" width="130" height="30" as="geometry" />
        </mxCell>
        <mxCell id="duleNhPsg_8qqcPGI_0x-22" value="Сотрудники отдела кадров (2)" style="rounded=0;whiteSpace=wrap;html=1;" parent="1" vertex="1">
          <mxGeometry x="516" y="546" width="130" height="30" as="geometry" />
        </mxCell>
        <mxCell id="duleNhPsg_8qqcPGI_0x-23" value="&lt;br&gt;&lt;br&gt;&lt;br&gt;&lt;br&gt;Отдел закупок (3)" style="rounded=1;whiteSpace=wrap;html=1;fillColor=#FFCC99;" parent="1" vertex="1">
          <mxGeometry x="326" y="606" width="329" height="70" as="geometry" />
        </mxCell>
        <mxCell id="duleNhPsg_8qqcPGI_0x-24" style="edgeStyle=orthogonalEdgeStyle;rounded=0;orthogonalLoop=1;jettySize=auto;html=1;exitX=1;exitY=0.5;exitDx=0;exitDy=0;entryX=0;entryY=0.5;entryDx=0;entryDy=0;" parent="1" source="duleNhPsg_8qqcPGI_0x-25" target="duleNhPsg_8qqcPGI_0x-26" edge="1">
          <mxGeometry relative="1" as="geometry" />
        </mxCell>
        <mxCell id="duleNhPsg_8qqcPGI_0x-25" value="Руководитель отдела закупок (1)" style="rounded=0;whiteSpace=wrap;html=1;" parent="1" vertex="1">
          <mxGeometry x="346" y="626" width="130" height="30" as="geometry" />
        </mxCell>
        <mxCell id="duleNhPsg_8qqcPGI_0x-26" value="Сотрудники отдела закупок (2)" style="rounded=0;whiteSpace=wrap;html=1;" parent="1" vertex="1">
          <mxGeometry x="516" y="626" width="130" height="30" as="geometry" />
        </mxCell>
        <mxCell id="duleNhPsg_8qqcPGI_0x-27" value="&lt;br&gt;&lt;br&gt;&lt;br&gt;&lt;br&gt;Административно-хозяйственная часть (3)" style="rounded=1;whiteSpace=wrap;html=1;fillColor=#FFCC99;" parent="1" vertex="1">
          <mxGeometry x="326" y="686" width="329" height="70" as="geometry" />
        </mxCell>
        <mxCell id="duleNhPsg_8qqcPGI_0x-28" style="edgeStyle=orthogonalEdgeStyle;rounded=0;orthogonalLoop=1;jettySize=auto;html=1;exitX=1;exitY=0.5;exitDx=0;exitDy=0;entryX=0;entryY=0.5;entryDx=0;entryDy=0;" parent="1" source="duleNhPsg_8qqcPGI_0x-29" target="duleNhPsg_8qqcPGI_0x-30" edge="1">
          <mxGeometry relative="1" as="geometry" />
        </mxCell>
        <mxCell id="duleNhPsg_8qqcPGI_0x-29" value="Руководитель АХЧ (1)" style="rounded=0;whiteSpace=wrap;html=1;" parent="1" vertex="1">
          <mxGeometry x="346" y="706" width="130" height="30" as="geometry" />
        </mxCell>
        <mxCell id="duleNhPsg_8qqcPGI_0x-30" value="Сотрудники АХЧ (2)" style="rounded=0;whiteSpace=wrap;html=1;" parent="1" vertex="1">
          <mxGeometry x="516" y="706" width="130" height="30" as="geometry" />
        </mxCell>
        <mxCell id="duleNhPsg_8qqcPGI_0x-33" style="edgeStyle=orthogonalEdgeStyle;rounded=0;orthogonalLoop=1;jettySize=auto;html=1;exitX=1;exitY=0.5;exitDx=0;exitDy=0;entryX=0;entryY=0.5;entryDx=0;entryDy=0;" parent="1" source="duleNhPsg_8qqcPGI_0x-1" target="duleNhPsg_8qqcPGI_0x-21" edge="1">
          <mxGeometry relative="1" as="geometry" />
        </mxCell>
        <mxCell id="duleNhPsg_8qqcPGI_0x-34" style="edgeStyle=orthogonalEdgeStyle;rounded=0;orthogonalLoop=1;jettySize=auto;html=1;exitX=1;exitY=0.5;exitDx=0;exitDy=0;entryX=0;entryY=0.5;entryDx=0;entryDy=0;" parent="1" source="duleNhPsg_8qqcPGI_0x-1" target="duleNhPsg_8qqcPGI_0x-25" edge="1">
          <mxGeometry relative="1" as="geometry" />
        </mxCell>
        <mxCell id="duleNhPsg_8qqcPGI_0x-35" style="edgeStyle=orthogonalEdgeStyle;rounded=0;orthogonalLoop=1;jettySize=auto;html=1;exitX=1;exitY=0.5;exitDx=0;exitDy=0;entryX=0;entryY=0.5;entryDx=0;entryDy=0;" parent="1" source="duleNhPsg_8qqcPGI_0x-1" target="duleNhPsg_8qqcPGI_0x-29" edge="1">
          <mxGeometry relative="1" as="geometry" />
        </mxCell>
        <mxCell id="duleNhPsg_8qqcPGI_0x-32" style="edgeStyle=orthogonalEdgeStyle;rounded=0;orthogonalLoop=1;jettySize=auto;html=1;exitX=1;exitY=0.5;exitDx=0;exitDy=0;entryX=0;entryY=0.5;entryDx=0;entryDy=0;" parent="1" source="duleNhPsg_8qqcPGI_0x-1" target="duleNhPsg_8qqcPGI_0x-17" edge="1">
          <mxGeometry relative="1" as="geometry" />
        </mxCell>
        <mxCell id="duleNhPsg_8qqcPGI_0x-31" style="edgeStyle=orthogonalEdgeStyle;rounded=0;orthogonalLoop=1;jettySize=auto;html=1;exitX=1;exitY=0.5;exitDx=0;exitDy=0;entryX=0;entryY=0.5;entryDx=0;entryDy=0;" parent="1" source="duleNhPsg_8qqcPGI_0x-1" target="duleNhPsg_8qqcPGI_0x-10" edge="1">
          <mxGeometry relative="1" as="geometry" />
        </mxCell>
        <mxCell id="duleNhPsg_8qqcPGI_0x-36" value="&lt;br&gt;&lt;br&gt;&lt;br&gt;&lt;br&gt;&lt;b&gt;&lt;font color=&quot;#009900&quot;&gt;СКЛАД (4) - 1 площадка&amp;nbsp;&lt;br&gt;&lt;/font&gt;&lt;/b&gt;" style="rounded=1;whiteSpace=wrap;html=1;fillColor=#D5E8D4;" parent="1" vertex="1">
          <mxGeometry x="315" y="806" width="350" height="70" as="geometry" />
        </mxCell>
        <mxCell id="duleNhPsg_8qqcPGI_0x-37" style="edgeStyle=orthogonalEdgeStyle;rounded=0;orthogonalLoop=1;jettySize=auto;html=1;exitX=1;exitY=0.5;exitDx=0;exitDy=0;entryX=0;entryY=0.5;entryDx=0;entryDy=0;" parent="1" source="duleNhPsg_8qqcPGI_0x-38" target="duleNhPsg_8qqcPGI_0x-39" edge="1">
          <mxGeometry relative="1" as="geometry" />
        </mxCell>
        <mxCell id="duleNhPsg_8qqcPGI_0x-38" value="Начальник склада (1)" style="rounded=0;whiteSpace=wrap;html=1;" parent="1" vertex="1">
          <mxGeometry x="345" y="826" width="130" height="30" as="geometry" />
        </mxCell>
        <mxCell id="duleNhPsg_8qqcPGI_0x-39" value="Персонал склада (3)" style="rounded=0;whiteSpace=wrap;html=1;" parent="1" vertex="1">
          <mxGeometry x="515" y="826" width="130" height="30" as="geometry" />
        </mxCell>
        <mxCell id="duleNhPsg_8qqcPGI_0x-40" style="edgeStyle=orthogonalEdgeStyle;rounded=0;orthogonalLoop=1;jettySize=auto;html=1;exitX=1;exitY=0.5;exitDx=0;exitDy=0;entryX=0;entryY=0.5;entryDx=0;entryDy=0;" parent="1" source="duleNhPsg_8qqcPGI_0x-1" target="duleNhPsg_8qqcPGI_0x-38" edge="1">
          <mxGeometry relative="1" as="geometry" />
        </mxCell>
        <mxCell id="duleNhPsg_8qqcPGI_0x-41" value="&lt;br&gt;&lt;br&gt;&lt;br&gt;&lt;br&gt;&lt;b&gt;&lt;font color=&quot;#003366&quot;&gt;ПАРИКМАХЕРСКАЯ (7) - 10 площадок&lt;/font&gt;&lt;font color=&quot;#009900&quot;&gt;&amp;nbsp;&lt;br&gt;&lt;/font&gt;&lt;/b&gt;" style="rounded=1;whiteSpace=wrap;html=1;fillColor=#CCCCFF;" parent="1" vertex="1">
          <mxGeometry x="315" y="896" width="350" height="80" as="geometry" />
        </mxCell>
        <mxCell id="duleNhPsg_8qqcPGI_0x-42" style="edgeStyle=orthogonalEdgeStyle;rounded=0;orthogonalLoop=1;jettySize=auto;html=1;exitX=1;exitY=0.5;exitDx=0;exitDy=0;entryX=0;entryY=0.5;entryDx=0;entryDy=0;" parent="1" source="duleNhPsg_8qqcPGI_0x-43" target="duleNhPsg_8qqcPGI_0x-44" edge="1">
          <mxGeometry relative="1" as="geometry" />
        </mxCell>
        <mxCell id="duleNhPsg_8qqcPGI_0x-43" value="Руководитель парикмахерской (1)" style="rounded=0;whiteSpace=wrap;html=1;" parent="1" vertex="1">
          <mxGeometry x="345" y="916" width="130" height="30" as="geometry" />
        </mxCell>
        <mxCell id="duleNhPsg_8qqcPGI_0x-44" value="Персонал парикмахерской (6)" style="rounded=0;whiteSpace=wrap;html=1;" parent="1" vertex="1">
          <mxGeometry x="515" y="916" width="130" height="30" as="geometry" />
        </mxCell>
        <mxCell id="duleNhPsg_8qqcPGI_0x-45" style="edgeStyle=orthogonalEdgeStyle;rounded=0;orthogonalLoop=1;jettySize=auto;html=1;exitX=1;exitY=0.5;exitDx=0;exitDy=0;entryX=0;entryY=0.5;entryDx=0;entryDy=0;" parent="1" source="duleNhPsg_8qqcPGI_0x-1" target="duleNhPsg_8qqcPGI_0x-43" edge="1">
          <mxGeometry relative="1" as="geometry" />
        </mxCell>
        <mxCell id="duleNhPsg_8qqcPGI_0x-47" value="Головной офис &lt;br&gt;(1 площадка)" style="rounded=1;whiteSpace=wrap;html=1;fillColor=#FFCC99;" parent="1" vertex="1">
          <mxGeometry x="172" y="1335" width="120" height="60" as="geometry" />
        </mxCell>
        <mxCell id="duleNhPsg_8qqcPGI_0x-50" value="Склад&lt;br&gt;(1 площадка)" style="rounded=1;whiteSpace=wrap;html=1;fillColor=#D5E8D4;" parent="1" vertex="1">
          <mxGeometry x="228" y="1202" width="120" height="60" as="geometry" />
        </mxCell>
        <mxCell id="duleNhPsg_8qqcPGI_0x-51" value="Парикмахерская&lt;br&gt;(10 площадок)" style="rounded=1;whiteSpace=wrap;html=1;fillColor=#CCCCFF;" parent="1" vertex="1">
          <mxGeometry x="435" y="1285" width="120" height="60" as="geometry" />
        </mxCell>
        <mxCell id="duleNhPsg_8qqcPGI_0x-53" value="Парикмахерская&lt;br&gt;(10 площадок)" style="rounded=1;whiteSpace=wrap;html=1;fillColor=#CCCCFF;" parent="1" vertex="1">
          <mxGeometry x="435" y="1418" width="120" height="60" as="geometry" />
        </mxCell>
        <mxCell id="duleNhPsg_8qqcPGI_0x-54" value="" style="endArrow=none;html=1;rounded=0;exitX=1;exitY=0.5;exitDx=0;exitDy=0;entryX=0;entryY=0.5;entryDx=0;entryDy=0;" parent="1" source="duleNhPsg_8qqcPGI_0x-47" target="duleNhPsg_8qqcPGI_0x-51" edge="1">
          <mxGeometry width="50" height="50" relative="1" as="geometry">
            <mxPoint x="321" y="1361" as="sourcePoint" />
            <mxPoint x="371" y="1311" as="targetPoint" />
          </mxGeometry>
        </mxCell>
        <mxCell id="duleNhPsg_8qqcPGI_0x-55" value="" style="endArrow=none;html=1;rounded=0;exitX=1;exitY=0.5;exitDx=0;exitDy=0;entryX=0;entryY=0.5;entryDx=0;entryDy=0;" parent="1" source="duleNhPsg_8qqcPGI_0x-47" target="duleNhPsg_8qqcPGI_0x-53" edge="1">
          <mxGeometry width="50" height="50" relative="1" as="geometry">
            <mxPoint x="302" y="1375" as="sourcePoint" />
            <mxPoint x="445" y="1325" as="targetPoint" />
          </mxGeometry>
        </mxCell>
        <mxCell id="duleNhPsg_8qqcPGI_0x-56" value="" style="endArrow=none;html=1;rounded=0;exitX=0.5;exitY=0;exitDx=0;exitDy=0;entryX=0.5;entryY=1;entryDx=0;entryDy=0;" parent="1" source="duleNhPsg_8qqcPGI_0x-47" target="duleNhPsg_8qqcPGI_0x-50" edge="1">
          <mxGeometry width="50" height="50" relative="1" as="geometry">
            <mxPoint x="312" y="1385" as="sourcePoint" />
            <mxPoint x="455" y="1335" as="targetPoint" />
          </mxGeometry>
        </mxCell>
        <mxCell id="-FGWZLwAwJdrPkHW6jCu-1" value="" style="endArrow=none;dashed=1;html=1;dashPattern=1 3;strokeWidth=2;rounded=0;" edge="1" parent="1">
          <mxGeometry width="50" height="50" relative="1" as="geometry">
            <mxPoint x="495" y="1402" as="sourcePoint" />
            <mxPoint x="495" y="1355" as="targetPoint" />
          </mxGeometry>
        </mxCell>
      </root>
    </mxGraphModel>
  </diagram>
</mxfile>
